<mxfile host="app.diagrams.net" modified="2024-06-11T15:35:03.850Z" agent="Mozilla/5.0 (Macintosh; Intel Mac OS X 10.15; rv:127.0) Gecko/20100101 Firefox/127.0" etag="03hlCnp9gOeyQGc6PGz4" version="24.5.3" type="github">
  <diagram id="6a731a19-8d31-9384-78a2-239565b7b9f0" name="Page-1">
    <mxGraphModel dx="1100" dy="1466" grid="1" gridSize="10" guides="1" tooltips="1" connect="1" arrows="1" fold="1" page="1" pageScale="1" pageWidth="1169" pageHeight="827" background="none" math="0" shadow="0">
      <root>
        <mxCell id="0" />
        <mxCell id="1" parent="0" />
        <mxCell id="2" value="start" style="shape=mxgraph.flowchart.terminator;strokeWidth=2;gradientColor=none;gradientDirection=north;fontStyle=0;html=1;" parent="1" vertex="1">
          <mxGeometry x="369.5" y="-100" width="120" height="30" as="geometry" />
        </mxCell>
        <mxCell id="3" value="open the app " style="shape=mxgraph.flowchart.data;strokeWidth=2;gradientColor=none;gradientDirection=north;fontStyle=0;html=1;" parent="1" vertex="1">
          <mxGeometry x="350" y="-30" width="159" height="80" as="geometry" />
        </mxCell>
        <mxCell id="7" style="fontStyle=1;strokeColor=#003366;strokeWidth=1;html=1;" parent="1" source="2" target="3" edge="1">
          <mxGeometry relative="1" as="geometry" />
        </mxCell>
        <mxCell id="8" style="fontStyle=1;strokeColor=#003366;strokeWidth=1;html=1;entryX=0.5;entryY=0;entryDx=0;entryDy=0;entryPerimeter=0;" parent="1" source="3" target="e_26a8FiM3SMynFQV-gh-69" edge="1">
          <mxGeometry relative="1" as="geometry" />
        </mxCell>
        <mxCell id="40" value="end" style="shape=mxgraph.flowchart.terminator;strokeWidth=2;gradientColor=none;gradientDirection=north;fontStyle=0;html=1;" parent="1" vertex="1">
          <mxGeometry x="260" y="1910" width="120" height="30" as="geometry" />
        </mxCell>
        <mxCell id="43" value="" style="edgeStyle=elbowEdgeStyle;elbow=vertical;exitX=0.5;exitY=1;exitPerimeter=0;entryX=0.5;entryY=0;entryPerimeter=0;fontStyle=1;strokeColor=#003366;strokeWidth=1;html=1;" parent="1" target="40" edge="1">
          <mxGeometry width="100" height="100" as="geometry">
            <mxPoint x="320" y="1810" as="sourcePoint" />
            <mxPoint x="100" as="targetPoint" />
          </mxGeometry>
        </mxCell>
        <mxCell id="e_26a8FiM3SMynFQV-gh-69" value="first use?" style="shape=mxgraph.flowchart.decision;strokeWidth=2;gradientColor=none;gradientDirection=north;fontStyle=0;html=1;" vertex="1" parent="1">
          <mxGeometry x="380.5" y="110" width="98" height="57" as="geometry" />
        </mxCell>
        <mxCell id="e_26a8FiM3SMynFQV-gh-70" value="go to dashboard" style="shape=mxgraph.flowchart.data;strokeWidth=2;gradientColor=none;gradientDirection=north;fontStyle=0;html=1;" vertex="1" parent="1">
          <mxGeometry x="140" y="170" width="159" height="80" as="geometry" />
        </mxCell>
        <mxCell id="e_26a8FiM3SMynFQV-gh-77" value="" style="edgeStyle=orthogonalEdgeStyle;rounded=0;orthogonalLoop=1;jettySize=auto;html=1;entryX=0.5;entryY=0;entryDx=0;entryDy=0;" edge="1" parent="1" source="e_26a8FiM3SMynFQV-gh-71" target="e_26a8FiM3SMynFQV-gh-79">
          <mxGeometry relative="1" as="geometry">
            <mxPoint x="664.5" y="330" as="targetPoint" />
          </mxGeometry>
        </mxCell>
        <mxCell id="e_26a8FiM3SMynFQV-gh-71" value="&lt;div&gt;show option page:&lt;/div&gt;&lt;div&gt;- offline usage&lt;/div&gt;&lt;div&gt;- create account&lt;br&gt;&lt;/div&gt;" style="shape=mxgraph.flowchart.data;strokeWidth=2;gradientColor=none;gradientDirection=north;fontStyle=0;html=1;" vertex="1" parent="1">
          <mxGeometry x="585" y="170" width="159" height="80" as="geometry" />
        </mxCell>
        <mxCell id="e_26a8FiM3SMynFQV-gh-72" style="edgeStyle=orthogonalEdgeStyle;rounded=0;orthogonalLoop=1;jettySize=auto;html=1;entryX=0.5;entryY=0;entryDx=0;entryDy=0;entryPerimeter=0;" edge="1" parent="1" source="e_26a8FiM3SMynFQV-gh-69" target="e_26a8FiM3SMynFQV-gh-70">
          <mxGeometry relative="1" as="geometry" />
        </mxCell>
        <mxCell id="e_26a8FiM3SMynFQV-gh-73" style="edgeStyle=orthogonalEdgeStyle;rounded=0;orthogonalLoop=1;jettySize=auto;html=1;exitX=1;exitY=0.5;exitDx=0;exitDy=0;exitPerimeter=0;entryX=0.5;entryY=0;entryDx=0;entryDy=0;entryPerimeter=0;" edge="1" parent="1" source="e_26a8FiM3SMynFQV-gh-69" target="e_26a8FiM3SMynFQV-gh-71">
          <mxGeometry relative="1" as="geometry" />
        </mxCell>
        <mxCell id="e_26a8FiM3SMynFQV-gh-74" value="no" style="text;html=1;align=center;verticalAlign=middle;resizable=0;points=[];autosize=1;strokeColor=none;fillColor=none;" vertex="1" parent="1">
          <mxGeometry x="340" y="138" width="40" height="30" as="geometry" />
        </mxCell>
        <mxCell id="e_26a8FiM3SMynFQV-gh-75" value="yes" style="text;html=1;align=center;verticalAlign=middle;resizable=0;points=[];autosize=1;strokeColor=none;fillColor=none;" vertex="1" parent="1">
          <mxGeometry x="478.5" y="138" width="40" height="30" as="geometry" />
        </mxCell>
        <mxCell id="e_26a8FiM3SMynFQV-gh-84" style="edgeStyle=orthogonalEdgeStyle;rounded=0;orthogonalLoop=1;jettySize=auto;html=1;entryX=0;entryY=0.5;entryDx=0;entryDy=0;" edge="1" parent="1" source="e_26a8FiM3SMynFQV-gh-79" target="e_26a8FiM3SMynFQV-gh-83">
          <mxGeometry relative="1" as="geometry" />
        </mxCell>
        <mxCell id="e_26a8FiM3SMynFQV-gh-79" value="offline usage?" style="rhombus;whiteSpace=wrap;html=1;" vertex="1" parent="1">
          <mxGeometry x="607.25" y="310" width="114.5" height="60" as="geometry" />
        </mxCell>
        <mxCell id="e_26a8FiM3SMynFQV-gh-80" style="edgeStyle=orthogonalEdgeStyle;rounded=0;orthogonalLoop=1;jettySize=auto;html=1;entryX=0.5;entryY=1;entryDx=0;entryDy=0;entryPerimeter=0;" edge="1" parent="1" source="e_26a8FiM3SMynFQV-gh-79" target="e_26a8FiM3SMynFQV-gh-70">
          <mxGeometry relative="1" as="geometry" />
        </mxCell>
        <mxCell id="e_26a8FiM3SMynFQV-gh-81" value="yes" style="text;html=1;align=center;verticalAlign=middle;resizable=0;points=[];autosize=1;strokeColor=none;fillColor=none;" vertex="1" parent="1">
          <mxGeometry x="567.25" y="310" width="40" height="30" as="geometry" />
        </mxCell>
        <mxCell id="e_26a8FiM3SMynFQV-gh-82" value="no" style="text;html=1;align=center;verticalAlign=middle;resizable=0;points=[];autosize=1;strokeColor=none;fillColor=none;" vertex="1" parent="1">
          <mxGeometry x="721.75" y="310" width="40" height="30" as="geometry" />
        </mxCell>
        <mxCell id="e_26a8FiM3SMynFQV-gh-83" value="start registration workflow" style="shape=parallelogram;perimeter=parallelogramPerimeter;whiteSpace=wrap;html=1;fixedSize=1;" vertex="1" parent="1">
          <mxGeometry x="960" y="310" width="120" height="60" as="geometry" />
        </mxCell>
      </root>
    </mxGraphModel>
  </diagram>
</mxfile>
